Coordinates
version=1
nRows=17
nColumns=24
inDegrees=yes

Units are S.I. units (second, meters, Newtons, ...)
Angles are in degrees.

endheader
time	pelvis_tilt	pelvis_list	pelvis_rotation	pelvis_tx	pelvis_ty	pelvis_tz	hip_flexion_r	hip_adduction_r	hip_rotation_r	knee_angle_r	ankle_angle_r	subtalar_angle_r	mtp_angle_r	hip_flexion_l	hip_adduction_l	hip_rotation_l	knee_angle_l	ankle_angle_l	subtalar_angle_l	mtp_angle_l	lumbar_extension	lumbar_bending	lumbar_rotation
      4.04000000	     63.90766839	      5.92316003	     10.57952903	      0.76039074	      1.07940421	     -0.27652334	     -3.89854407	    -13.70498972	     -6.12822049	    -54.27310567	    -15.29227380	      0.95538187	     32.82669497	     16.34481341	    -12.38545667	     13.54228591	    -13.37347705	    -22.15767935	     18.22844357	    -31.52360901	      0.00000000	      0.00000000	      0.00000000
      4.05000000	     63.95258879	      5.91397637	     10.60133845	      0.76033354	      1.07968284	     -0.27662067	     -4.05595072	    -13.66981085	     -6.13928669	    -54.12198581	    -15.33413251	      0.97487708	     33.64573269	     16.29085770	    -12.38170786	     13.53950443	    -13.38018836	    -22.16882066	     18.26014405	    -31.51478289	      0.00000000	      0.00000000	      0.00000000
      4.06000000	     63.99056862	      5.89858899	     10.61806648	      0.76027080	      1.07993933	     -0.27668415	     -4.30038539	    -13.61421149	     -6.13840889	    -53.83458376	    -15.37261018	      1.01232079	     34.81093496	     16.24990643	    -12.38602944	     13.53920801	    -13.38820869	    -22.17695904	     18.29196501	    -31.49635210	      0.00000000	      0.00000000	      0.00000000
      4.07000000	     64.01760378	      5.87789223	     10.62676151	      0.76019706	      1.07997378	     -0.27662450	     -4.61443432	    -13.54978968	     -6.12395544	    -53.43306612	    -15.41556882	      1.06440807	     36.33550037	     16.22653415	    -12.39794493	     13.54002508	    -13.39835791	    -22.17927588	     18.32077458	    -31.46765691	      0.00000000	      0.00000000	      0.00000000
      4.08000000	     64.04135579	      5.85468498	     10.63181448	      0.76012252	      1.07985749	     -0.27648498	     -4.95265949	    -13.48728182	     -6.10252148	    -52.97856329	    -15.47473886	      1.12461755	     38.17438502	     16.21142527	    -12.41401655	     13.54025089	    -13.41251180	    -22.17388483	     18.34419734	    -31.42926218	      0.00000000	      0.00000000	      0.00000000
      4.09000000	     64.07403463	      5.83319854	     10.64002704	      0.76006714	      1.07987009	     -0.27641057	     -5.25908931	    -13.43331733	     -6.08584850	    -52.55154277	    -15.56180129	      1.18479884	     40.22771273	     16.18894212	    -12.42867351	     13.53807998	    -13.43189285	    -22.16049074	     18.36107973	    -31.38295893	      0.00000000	      0.00000000	      0.00000000
      4.10000000	     64.11796481	      5.81629225	     10.65257063	      0.76002563	      1.08008002	     -0.27644891	     -5.49581869	    -13.39202099	     -6.08377363	    -52.22109422	    -15.68238224	      1.23718540	     42.35409620	     16.15047717	    -12.43717480	     13.53206033	    -13.45491137	    -22.14051709	     18.37147767	    -31.33156294	      0.00000000	      0.00000000	      0.00000000
      4.11000000	     64.16431156	      5.80507560	     10.66424991	      0.75997794	      1.08030101	     -0.27652302	     -5.65342542	    -13.36671421	     -6.09859687	    -52.01941999	    -15.83121343	      1.27604950	     44.39138879	     16.10107445	    -12.43796422	     13.52147401	    -13.47751339	    -22.11676231	     18.37638558	    -31.27858145	      0.00000000	      0.00000000	      0.00000000
      4.12000000	     64.20306667	      5.79993083	     10.66970909	      0.75992739	      1.08039488	     -0.27656303	     -5.74067217	    -13.35920015	     -6.12478790	    -51.93569630	    -15.99167661	      1.29864555	     46.18090481	     16.05421535	    -12.43225380	     13.50640800	    -13.49615298	    -22.09277168	     18.37746121	    -31.22781586	      0.00000000	      0.00000000	      0.00000000
      4.13000000	     64.22866607	      5.80004278	     10.66805052	      0.75989404	      1.08037722	     -0.27656092	     -5.77269374	    -13.36840470	     -6.15319981	    -51.93058942	    -16.14044894	      1.30548208	     47.59072446	     16.02152551	    -12.42203020	     13.48768292	    -13.51040121	    -22.07199722	     18.37673195	    -31.18292282	      0.00000000	      0.00000000	      0.00000000
      4.14000000	     64.23955408	      5.80311064	     10.66209132	      0.75988257	      1.08031443	     -0.27654076	     -5.76593716	    -13.38995702	     -6.17632823	    -51.95965966	    -16.25495152	      1.29999477	     48.53425359	     16.00687117	    -12.40874443	     13.46681600	    -13.52263869	    -22.05686959	     18.37617965	    -31.14696198	      0.00000000	      0.00000000	      0.00000000
      4.15000000	     64.23709796	      5.80651834	     10.65508512	      0.75987815	      1.08024432	     -0.27652601	     -5.73661719	    -13.41736650	     -6.19138741	    -51.99144777	    -16.32010128	      1.28760862	     48.98133838	     16.00727258	    -12.39337806	     13.44589972	    -13.53556231	    -22.04814148	     18.37729508	    -31.12200895	      0.00000000	      0.00000000	      0.00000000
      4.16000000	     64.22527588	      5.80873056	     10.64886540	      0.75986765	      1.08018220	     -0.27652720	     -5.69898714	    -13.44439136	     -6.20006652	    -52.01330296	    -16.33182721	      1.27429878	     48.96064527	     16.01665922	    -12.37709798	     13.42720005	    -13.55025510	    -22.04485132	     18.38081987	    -31.10892901	      0.00000000	      0.00000000	      0.00000000
      4.17000000	     64.20968750	      5.80969055	     10.64414619	      0.75985189	      1.08014107	     -0.27654331	     -5.66331217	    -13.46711972	     -6.20611626	    -52.02677446	    -16.29674239	      1.26504360	     48.55346257	     16.02877668	    -12.36139468	     13.41252393	    -13.56625402	    -22.04487849	     18.38678372	    -31.10735956	      0.00000000	      0.00000000	      0.00000000
      4.18000000	     64.19547820	      5.81022982	     10.64138938	      0.75983933	      1.08012374	     -0.27656724	     -5.63496392	    -13.48456981	     -6.21279124	    -52.03879109	    -16.22897595	      1.26267597	     47.88033545	     16.03854706	    -12.34738707	     13.40267062	    -13.58288004	    -22.04576092	     18.39475637	    -31.11588834	      0.00000000	      0.00000000	      0.00000000
      4.19000000	     64.18563841	      5.81121328	     10.64105137	      0.75983579	      1.08012027	     -0.27658868	     -5.61511800	    -13.49797343	     -6.22148603	    -52.05433242	    -16.14587405	      1.26746758	     47.08285225	     16.04287811	    -12.33503974	     13.39730301	    -13.60021229	    -22.04540310	     18.40412993	    -31.13236735	      0.00000000	      0.00000000	      0.00000000
      4.20000000	     64.18075697	      5.81319372	     10.64326157	      0.75984174	      1.08012448	     -0.27659843	     -5.60243750	    -13.50962132	     -6.23178337	    -52.07330725	    -16.06410432	      1.27749646	     46.30339483	     16.04134875	    -12.32330628	     13.39536453	    -13.61884320	    -22.04247512	     18.41430595	    -31.15428077	      0.00000000	      0.00000000	      0.00000000
